<mxfile host="app.diagrams.net" agent="Mozilla/5.0 (Windows NT 10.0; Win64; x64) AppleWebKit/537.36 (KHTML, like Gecko) Chrome/133.0.0.0 Safari/537.36" version="26.0.16">
  <diagram name="PÃ¡gina-1" id="OTXqZsvEz-NKTgS0rqhx">
    <mxGraphModel dx="880" dy="1595" grid="1" gridSize="10" guides="1" tooltips="1" connect="1" arrows="1" fold="1" page="1" pageScale="1" pageWidth="827" pageHeight="1169" math="0" shadow="0">
      <root>
        <mxCell id="0" />
        <mxCell id="1" parent="0" />
        <mxCell id="S4RVOxuPV0XDSwWrKSKs-2" value="" style="ellipse;shape=cloud;whiteSpace=wrap;html=1;" vertex="1" parent="1">
          <mxGeometry x="220" y="-125" width="710" height="550" as="geometry" />
        </mxCell>
        <mxCell id="S4RVOxuPV0XDSwWrKSKs-1" value="DB" style="shape=cylinder3;whiteSpace=wrap;html=1;boundedLbl=1;backgroundOutline=1;size=15;" vertex="1" parent="1">
          <mxGeometry x="760" y="50" width="60" height="80" as="geometry" />
        </mxCell>
        <mxCell id="S4RVOxuPV0XDSwWrKSKs-16" style="edgeStyle=orthogonalEdgeStyle;rounded=0;orthogonalLoop=1;jettySize=auto;html=1;entryX=0.5;entryY=0;entryDx=0;entryDy=0;" edge="1" parent="1" source="S4RVOxuPV0XDSwWrKSKs-4" target="S4RVOxuPV0XDSwWrKSKs-6">
          <mxGeometry relative="1" as="geometry">
            <Array as="points">
              <mxPoint x="640" y="40" />
              <mxPoint x="430" y="40" />
            </Array>
          </mxGeometry>
        </mxCell>
        <mxCell id="S4RVOxuPV0XDSwWrKSKs-18" value="2" style="edgeLabel;html=1;align=center;verticalAlign=middle;resizable=0;points=[];" vertex="1" connectable="0" parent="S4RVOxuPV0XDSwWrKSKs-16">
          <mxGeometry x="0.024" y="-3" relative="1" as="geometry">
            <mxPoint y="-6" as="offset" />
          </mxGeometry>
        </mxCell>
        <mxCell id="S4RVOxuPV0XDSwWrKSKs-4" value="Autenticacion" style="shape=process;whiteSpace=wrap;html=1;backgroundOutline=1;" vertex="1" parent="1">
          <mxGeometry x="580" y="60" width="120" height="60" as="geometry" />
        </mxCell>
        <mxCell id="S4RVOxuPV0XDSwWrKSKs-8" style="edgeStyle=orthogonalEdgeStyle;rounded=0;orthogonalLoop=1;jettySize=auto;html=1;" edge="1" parent="1" source="S4RVOxuPV0XDSwWrKSKs-5" target="S4RVOxuPV0XDSwWrKSKs-1">
          <mxGeometry relative="1" as="geometry" />
        </mxCell>
        <mxCell id="S4RVOxuPV0XDSwWrKSKs-25" value="3" style="edgeLabel;html=1;align=center;verticalAlign=middle;resizable=0;points=[];" vertex="1" connectable="0" parent="S4RVOxuPV0XDSwWrKSKs-8">
          <mxGeometry x="-0.6429" y="-3" relative="1" as="geometry">
            <mxPoint y="-12" as="offset" />
          </mxGeometry>
        </mxCell>
        <mxCell id="S4RVOxuPV0XDSwWrKSKs-21" style="edgeStyle=orthogonalEdgeStyle;rounded=0;orthogonalLoop=1;jettySize=auto;html=1;entryX=0.5;entryY=0;entryDx=0;entryDy=0;" edge="1" parent="1" source="S4RVOxuPV0XDSwWrKSKs-5" target="S4RVOxuPV0XDSwWrKSKs-20">
          <mxGeometry relative="1" as="geometry" />
        </mxCell>
        <mxCell id="S4RVOxuPV0XDSwWrKSKs-26" value="4" style="edgeLabel;html=1;align=center;verticalAlign=middle;resizable=0;points=[];" vertex="1" connectable="0" parent="S4RVOxuPV0XDSwWrKSKs-21">
          <mxGeometry x="-0.16" y="-1" relative="1" as="geometry">
            <mxPoint as="offset" />
          </mxGeometry>
        </mxCell>
        <mxCell id="S4RVOxuPV0XDSwWrKSKs-5" value="Factura Electronica" style="shape=process;whiteSpace=wrap;html=1;backgroundOutline=1;" vertex="1" parent="1">
          <mxGeometry x="620" y="190" width="120" height="60" as="geometry" />
        </mxCell>
        <mxCell id="S4RVOxuPV0XDSwWrKSKs-9" style="edgeStyle=orthogonalEdgeStyle;rounded=0;orthogonalLoop=1;jettySize=auto;html=1;" edge="1" parent="1" source="S4RVOxuPV0XDSwWrKSKs-6" target="S4RVOxuPV0XDSwWrKSKs-4">
          <mxGeometry relative="1" as="geometry" />
        </mxCell>
        <mxCell id="S4RVOxuPV0XDSwWrKSKs-17" value="1" style="edgeLabel;html=1;align=center;verticalAlign=middle;resizable=0;points=[];" vertex="1" connectable="0" parent="S4RVOxuPV0XDSwWrKSKs-9">
          <mxGeometry x="-0.0222" y="6" relative="1" as="geometry">
            <mxPoint y="-2" as="offset" />
          </mxGeometry>
        </mxCell>
        <mxCell id="S4RVOxuPV0XDSwWrKSKs-13" style="edgeStyle=orthogonalEdgeStyle;rounded=0;orthogonalLoop=1;jettySize=auto;html=1;" edge="1" parent="1" source="S4RVOxuPV0XDSwWrKSKs-6" target="S4RVOxuPV0XDSwWrKSKs-12">
          <mxGeometry relative="1" as="geometry" />
        </mxCell>
        <mxCell id="S4RVOxuPV0XDSwWrKSKs-6" value="FrondEnd" style="rounded=1;whiteSpace=wrap;html=1;" vertex="1" parent="1">
          <mxGeometry x="370" y="60" width="120" height="60" as="geometry" />
        </mxCell>
        <mxCell id="S4RVOxuPV0XDSwWrKSKs-7" style="edgeStyle=orthogonalEdgeStyle;rounded=0;orthogonalLoop=1;jettySize=auto;html=1;entryX=0;entryY=0.5;entryDx=0;entryDy=0;entryPerimeter=0;" edge="1" parent="1" source="S4RVOxuPV0XDSwWrKSKs-4" target="S4RVOxuPV0XDSwWrKSKs-1">
          <mxGeometry relative="1" as="geometry" />
        </mxCell>
        <mxCell id="S4RVOxuPV0XDSwWrKSKs-14" style="edgeStyle=orthogonalEdgeStyle;rounded=0;orthogonalLoop=1;jettySize=auto;html=1;exitX=1;exitY=0.5;exitDx=0;exitDy=0;entryX=0;entryY=0.5;entryDx=0;entryDy=0;" edge="1" parent="1" source="S4RVOxuPV0XDSwWrKSKs-12" target="S4RVOxuPV0XDSwWrKSKs-5">
          <mxGeometry relative="1" as="geometry" />
        </mxCell>
        <mxCell id="S4RVOxuPV0XDSwWrKSKs-12" value="Autenticado" style="shape=step;perimeter=stepPerimeter;whiteSpace=wrap;html=1;fixedSize=1;" vertex="1" parent="1">
          <mxGeometry x="460" y="190" width="110" height="60" as="geometry" />
        </mxCell>
        <mxCell id="S4RVOxuPV0XDSwWrKSKs-19" style="edgeStyle=orthogonalEdgeStyle;rounded=0;orthogonalLoop=1;jettySize=auto;html=1;" edge="1" parent="1" source="S4RVOxuPV0XDSwWrKSKs-15" target="S4RVOxuPV0XDSwWrKSKs-6">
          <mxGeometry relative="1" as="geometry" />
        </mxCell>
        <mxCell id="S4RVOxuPV0XDSwWrKSKs-15" value="Actor" style="shape=umlActor;verticalLabelPosition=bottom;verticalAlign=top;html=1;outlineConnect=0;" vertex="1" parent="1">
          <mxGeometry x="60" y="30" width="60" height="110" as="geometry" />
        </mxCell>
        <mxCell id="S4RVOxuPV0XDSwWrKSKs-23" style="edgeStyle=orthogonalEdgeStyle;rounded=0;orthogonalLoop=1;jettySize=auto;html=1;" edge="1" parent="1" source="S4RVOxuPV0XDSwWrKSKs-20" target="S4RVOxuPV0XDSwWrKSKs-22">
          <mxGeometry relative="1" as="geometry">
            <Array as="points" />
          </mxGeometry>
        </mxCell>
        <mxCell id="S4RVOxuPV0XDSwWrKSKs-27" value="5" style="edgeLabel;html=1;align=center;verticalAlign=middle;resizable=0;points=[];" vertex="1" connectable="0" parent="S4RVOxuPV0XDSwWrKSKs-23">
          <mxGeometry x="-0.4795" relative="1" as="geometry">
            <mxPoint x="125" y="-55" as="offset" />
          </mxGeometry>
        </mxCell>
        <mxCell id="S4RVOxuPV0XDSwWrKSKs-20" value="Envio MH" style="shape=step;perimeter=stepPerimeter;whiteSpace=wrap;html=1;fixedSize=1;" vertex="1" parent="1">
          <mxGeometry x="630" y="300" width="100" height="50" as="geometry" />
        </mxCell>
        <mxCell id="S4RVOxuPV0XDSwWrKSKs-24" style="edgeStyle=orthogonalEdgeStyle;rounded=0;orthogonalLoop=1;jettySize=auto;html=1;entryX=0.5;entryY=1;entryDx=0;entryDy=0;" edge="1" parent="1" source="S4RVOxuPV0XDSwWrKSKs-22" target="S4RVOxuPV0XDSwWrKSKs-20">
          <mxGeometry relative="1" as="geometry">
            <Array as="points">
              <mxPoint x="1150" y="420" />
              <mxPoint x="680" y="420" />
            </Array>
          </mxGeometry>
        </mxCell>
        <mxCell id="S4RVOxuPV0XDSwWrKSKs-28" value="6" style="edgeLabel;html=1;align=center;verticalAlign=middle;resizable=0;points=[];" vertex="1" connectable="0" parent="S4RVOxuPV0XDSwWrKSKs-24">
          <mxGeometry x="0.1275" y="1" relative="1" as="geometry">
            <mxPoint y="-9" as="offset" />
          </mxGeometry>
        </mxCell>
        <mxCell id="S4RVOxuPV0XDSwWrKSKs-22" value="API MH" style="ellipse;shape=cloud;whiteSpace=wrap;html=1;" vertex="1" parent="1">
          <mxGeometry x="1050" y="160" width="239" height="240" as="geometry" />
        </mxCell>
      </root>
    </mxGraphModel>
  </diagram>
</mxfile>
